<svg width="192" height="48" viewBox="0 0 192 48" fill="none" xmlns="http://www.w3.org/2000/svg">
<path d="M10.2275 37.464H16.1155C19.8275 37.464 22.8568 36.3547 25.2035 34.136C27.5928 31.9173 28.7875 28.6533 28.7875 24.344C28.7875 19.992 27.5928 16.7067 25.2035 14.488C22.8568 12.2693 19.8275 11.16 16.1155 11.16H10.2275V37.464ZM16.4995 47H0.1155V1.624H16.5635C23.4328 1.624 28.9368 3.672 33.0755 7.768C37.2568 11.864 39.3475 17.3893 39.3475 24.344C39.3475 31.2987 37.2568 36.824 33.0755 40.92C28.9368 44.9733 23.4115 47 16.4995 47ZM66.457 47C66.2863 46.232 66.201 45.1653 66.201 43.8C65.433 45.08 64.2597 46.0613 62.681 46.744C61.1023 47.384 59.4383 47.704 57.689 47.704C53.9343 47.704 50.969 46.5307 48.793 44.184C46.6597 41.7947 45.593 38.8293 45.593 35.288V15.192H55.321V33.24C55.321 34.8613 55.7477 36.184 56.601 37.208C57.497 38.232 58.777 38.744 60.441 38.744C62.0623 38.744 63.3423 38.2533 64.281 37.272C65.2623 36.248 65.753 34.9253 65.753 33.304V15.192H75.481V41.304C75.481 43.3947 75.5877 45.2933 75.801 47H66.457ZM93.766 47H84.038V0.663998H93.766V47ZM117.007 23.192C114.916 23.192 113.167 23.896 111.759 25.304C110.393 26.712 109.711 28.6533 109.711 31.128C109.711 33.56 110.415 35.48 111.823 36.888C113.273 38.296 115.044 39 117.135 39C118.884 39 120.313 38.552 121.423 37.656C122.575 36.7173 123.343 35.5867 123.727 34.264L132.303 36.888C131.535 39.9173 129.807 42.52 127.119 44.696C124.473 46.872 121.145 47.96 117.135 47.96C112.356 47.96 108.303 46.3813 104.975 43.224C101.689 40.024 100.047 35.992 100.047 31.128C100.047 26.2213 101.647 22.1893 104.847 19.032C108.089 15.832 112.079 14.232 116.815 14.232C120.953 14.232 124.345 15.2987 126.991 17.432C129.636 19.5653 131.343 22.1893 132.111 25.304L123.407 27.928C123.023 26.5627 122.297 25.432 121.231 24.536C120.164 23.64 118.756 23.192 117.007 23.192ZM145.273 27.288H158.009C157.924 25.8373 157.348 24.5787 156.281 23.512C155.257 22.4453 153.7 21.912 151.609 21.912C149.732 21.912 148.238 22.4667 147.129 23.576C146.02 24.6853 145.401 25.9227 145.273 27.288ZM158.713 35.544L166.841 37.848C166.03 40.792 164.345 43.224 161.785 45.144C159.225 47.0213 156.025 47.96 152.185 47.96C147.577 47.96 143.652 46.424 140.409 43.352C137.209 40.28 135.609 36.1627 135.609 31C135.609 26.0507 137.166 22.0187 140.281 18.904C143.438 15.7893 147.172 14.232 151.481 14.232C156.43 14.232 160.313 15.6827 163.129 18.584C165.988 21.4427 167.417 25.432 167.417 30.552C167.417 32.1733 167.353 33.176 167.225 33.56H145.081C145.166 35.3093 145.913 36.7813 147.321 37.976C148.729 39.128 150.393 39.704 152.313 39.704C155.598 39.704 157.732 38.3173 158.713 35.544ZM185.311 5.912V15.192H191.519V23.704H185.311V35.608C185.311 37.8267 186.484 38.936 188.831 38.936C189.599 38.936 190.452 38.8293 191.391 38.616V46.68C190.196 47.2773 188.511 47.576 186.335 47.576C183.05 47.576 180.447 46.6587 178.527 44.824C176.65 42.9893 175.711 40.4933 175.711 37.336V23.704H170.079V15.192H171.679C173.3 15.192 174.516 14.7227 175.327 13.784C176.18 12.8027 176.607 11.544 176.607 10.008V5.912H185.311Z" fill="white"/>
</svg>
